<svg xmlns="http://www.w3.org/2000/svg" width="230.337" height="42.839" viewBox="0 0 230.337 42.839">
  <g id="Group_58" data-name="Group 58" transform="translate(-248 -8577.889)">
    <path id="Path_7" data-name="Path 7" d="M452.141,330.8V297.225H465.5v8.583h-7.134v4.375h5.7v7.447h-5.7v6.582h7.361V330.8Z" transform="translate(-87.583 8280.935)" fill="#ed1d24"/>
    <path id="Path_8" data-name="Path 8" d="M468.863,324.884l-.844-2.231q-.422-1.068-.906-2.443t-.877-2.677q-.422,1.3-.891,2.677t-.891,2.443l-.873,2.231h-6.023l5.8-12.75-5.15-11.68h6.348l.2.559c.256.745.566,1.629.92,2.652a26.57,26.57,0,0,1,.825,2.838q.356-1.348.891-2.86t.924-2.63l.194-.559h6.055l-5.215,11.311,5.862,13.119Z" transform="translate(-77.219 8286.848)" fill="#ed1d24"/>
    <path id="Path_9" data-name="Path 9" d="M478.556,312.973q0,6.557-1.563,9.679t-4.365,3.115a3.611,3.611,0,0,1-2.188-.668,11.041,11.041,0,0,1-1.633-1.454V330.9l-5.8,3.349v-33.44h5.8l.044,1.724a10.44,10.44,0,0,1,1.76-1.6,3.808,3.808,0,0,1,2.242-.624,3.986,3.986,0,0,1,2.25.7,5.626,5.626,0,0,1,1.8,2.235,14.873,14.873,0,0,1,1.205,3.93A32.8,32.8,0,0,1,478.556,312.973Zm-5.8.277q0-1.824-.117-3.024a8.69,8.69,0,0,0-.343-1.874,1.823,1.823,0,0,0-.584-.939,1.38,1.38,0,0,0-.818-.259,2.01,2.01,0,0,0-1.143.329,5,5,0,0,0-.946.844v9.426a4.914,4.914,0,0,0,.946.847,2.068,2.068,0,0,0,1.176.329,1.385,1.385,0,0,0,.8-.237,1.687,1.687,0,0,0,.57-.865,7.6,7.6,0,0,0,.343-1.735A28.334,28.334,0,0,0,472.76,313.25Z" transform="translate(-63.757 8286.477)" fill="#ed1d24"/>
    <path id="Path_10" data-name="Path 10" d="M478.9,310.04a6.475,6.475,0,0,0-1.216-1.465,2.223,2.223,0,0,0-1.5-.584,1.961,1.961,0,0,0-1.684.862,5.623,5.623,0,0,0-.617,3.093v13.309h-5.8v-24.43h5.8v1.768a6.515,6.515,0,0,1,1.622-1.673,3.433,3.433,0,0,1,2.009-.606,3.933,3.933,0,0,1,1.585.281,4.132,4.132,0,0,1,1.165.741Z" transform="translate(-51.309 8286.477)" fill="#ed1d24"/>
    <path id="Path_11" data-name="Path 11" d="M487.086,313.809v.909a7.14,7.14,0,0,1-.033.72h-9.974a5.383,5.383,0,0,0,.924,2.977,2.416,2.416,0,0,0,1.958.931,5.78,5.78,0,0,0,2.137-.394,10.206,10.206,0,0,0,2.268-1.326l2.235,5.351a12.979,12.979,0,0,1-3.254,2.071,9.2,9.2,0,0,1-3.674.72,6.3,6.3,0,0,1-3.4-.928,7.61,7.61,0,0,1-2.495-2.608,13.343,13.343,0,0,1-1.523-4.025,23.79,23.79,0,0,1-.519-5.142,23.452,23.452,0,0,1,.584-5.537,13.079,13.079,0,0,1,1.618-3.981,7.253,7.253,0,0,1,2.462-2.418,6.279,6.279,0,0,1,8.649,2.538Q487.086,307.014,487.086,313.809Zm-5.15-3.583a7.673,7.673,0,0,0-.76-2.794,1.939,1.939,0,0,0-1.83-.928c-1.319,0-2.071,1.238-2.268,3.722Z" transform="translate(-41.62 8286.477)" fill="#ed1d24"/>
    <path id="Path_12" data-name="Path 12" d="M490.662,317.531q0,4.235-1.877,6.238a6.723,6.723,0,0,1-5.15,2,12.6,12.6,0,0,1-3.66-.533,16.738,16.738,0,0,1-3.433-1.465l1.362-6.329a16.638,16.638,0,0,0,3.141,1.56,8.141,8.141,0,0,0,2.717.581,1.964,1.964,0,0,0,1.2-.281.991.991,0,0,0,.354-.836,1.367,1.367,0,0,0-.259-.906,2.814,2.814,0,0,0-1.1-.628,27.653,27.653,0,0,1-3.32-1.468,7.535,7.535,0,0,1-2.169-1.673,5.863,5.863,0,0,1-1.2-2.257,11.862,11.862,0,0,1-.372-3.214,9.078,9.078,0,0,1,1.716-5.884,6.305,6.305,0,0,1,5.212-2.118,12.689,12.689,0,0,1,1.782.117,13.57,13.57,0,0,1,1.585.325,10.206,10.206,0,0,1,1.556.559c.519.234,1.055.489,1.618.767l-1.293,6.468a17.2,17.2,0,0,0-2.98-1.56,6.919,6.919,0,0,0-2.429-.486,1.8,1.8,0,0,0-1.136.256,1.028,1.028,0,0,0-.289.815,2.155,2.155,0,0,0,.047.486.866.866,0,0,0,.227.4,2.185,2.185,0,0,0,.519.372,9.464,9.464,0,0,0,.891.416,27.224,27.224,0,0,1,3.061,1.4,7.781,7.781,0,0,1,2.1,1.625,5.681,5.681,0,0,1,1.2,2.188A10.947,10.947,0,0,1,490.662,317.531Z" transform="translate(-28.873 8286.477)" fill="#ed1d24"/>
    <path id="Path_13" data-name="Path 13" d="M495.193,317.531q0,4.235-1.881,6.238a6.71,6.71,0,0,1-5.146,2,12.606,12.606,0,0,1-3.66-.533,16.657,16.657,0,0,1-3.433-1.465l1.359-6.329a16.778,16.778,0,0,0,3.145,1.56,8.123,8.123,0,0,0,2.717.581,1.964,1.964,0,0,0,1.2-.281,1,1,0,0,0,.354-.836,1.367,1.367,0,0,0-.259-.906,2.845,2.845,0,0,0-1.1-.628,27.66,27.66,0,0,1-3.32-1.468A7.434,7.434,0,0,1,483,313.787a5.814,5.814,0,0,1-1.2-2.257,11.707,11.707,0,0,1-.376-3.214,9.078,9.078,0,0,1,1.72-5.884,6.305,6.305,0,0,1,5.212-2.118,12.732,12.732,0,0,1,1.782.117,13.562,13.562,0,0,1,1.585.325,10.214,10.214,0,0,1,1.556.559c.519.234,1.055.489,1.618.767l-1.293,6.468a17.2,17.2,0,0,0-2.98-1.56,6.918,6.918,0,0,0-2.429-.486,1.8,1.8,0,0,0-1.136.256,1.029,1.029,0,0,0-.292.815,2.133,2.133,0,0,0,.051.486.836.836,0,0,0,.227.4,2.11,2.11,0,0,0,.519.372,9.43,9.43,0,0,0,.891.416,27.238,27.238,0,0,1,3.061,1.4,7.782,7.782,0,0,1,2.1,1.625,5.68,5.68,0,0,1,1.2,2.188A10.95,10.95,0,0,1,495.193,317.531Z" transform="translate(-16.856 8286.477)" fill="#ed1d24"/>
    <g id="Group_4" data-name="Group 4" transform="translate(248.5 8578.389)">
      <path id="Path_32" data-name="Path 32" d="M441.179,327.288a8.612,8.612,0,0,1-3.325,2.939,12.2,12.2,0,0,1-6.077,1.363,9.438,9.438,0,0,1-7.75-3.838A15.567,15.567,0,0,1,421,317.812v-5.923a15.657,15.657,0,0,1,2.875-9.761,9.69,9.69,0,0,1,14.295-1.164,11.014,11.014,0,0,1,2.857,6.777l-.038.131h-2.067a9.825,9.825,0,0,0-2.288-5.245,6.779,6.779,0,0,0-5.305-2.007,6.865,6.865,0,0,0-5.871,3.149,13.66,13.66,0,0,0-2.224,8.068V317.8a13.692,13.692,0,0,0,2.362,8.289,7.308,7.308,0,0,0,6.178,3.239,10.631,10.631,0,0,0,4.59-.9,6.083,6.083,0,0,0,2.576-1.958v-8.413h-7.2v-2.265h9.439Z" transform="translate(-421.002 -298.354)" fill="#fff" stroke="#000" stroke-width="1"/>
      <path id="Path_33" data-name="Path 33" d="M441.527,325.026c-.15-.812-.255-1.516-.318-2.108a17.814,17.814,0,0,1-.094-1.8,9.606,9.606,0,0,1-2.977,3.126,7.348,7.348,0,0,1-4.19,1.243,5.745,5.745,0,0,1-4.568-1.864,7.3,7.3,0,0,1-1.629-4.991,6.566,6.566,0,0,1,2.411-5.324,9.888,9.888,0,0,1,6.5-2h4.448v-2.973a5.636,5.636,0,0,0-1.385-4.04,5.1,5.1,0,0,0-3.883-1.464,5.534,5.534,0,0,0-3.86,1.4,4.451,4.451,0,0,0-1.535,3.418l-2.048-.022-.038-.135a6.157,6.157,0,0,1,2.059-4.8,7.547,7.547,0,0,1,5.515-2.119,7.261,7.261,0,0,1,5.362,2.018,7.823,7.823,0,0,1,2.029,5.792v11.8a24.013,24.013,0,0,0,.12,2.464,18.35,18.35,0,0,0,.4,2.374Zm-7.316-1.887a7.016,7.016,0,0,0,4.242-1.34,7.58,7.58,0,0,0,2.662-3.429v-5.013H436.63a7.23,7.23,0,0,0-4.849,1.543,4.823,4.823,0,0,0-1.816,3.826,4.542,4.542,0,0,0,1.127,3.182A4.007,4.007,0,0,0,434.212,323.139Z" transform="translate(-403.039 -292.254)" fill="#fff" stroke="#000" stroke-width="1"/>
      <path id="Path_34" data-name="Path 34" d="M435.914,322.437H449V324.7H433.162v-1.973L445.3,302.956H433.533V300.7h14.576v1.954Z" transform="translate(-388.644 -291.93)" fill="#fff" stroke="#000" stroke-width="1"/>
      <path id="Path_35" data-name="Path 35" d="M446.857,325.49a7.566,7.566,0,0,1-6.279-3.328,13.614,13.614,0,0,1-2.5-8.428v-1.221a14.074,14.074,0,0,1,2.486-8.544,7.29,7.29,0,0,1,6.02-3.392,6.922,6.922,0,0,1,5.826,2.793,12.027,12.027,0,0,1,2.123,7.454v2.265h-14.22v.64a11.965,11.965,0,0,0,1.8,6.773,5.466,5.466,0,0,0,4.744,2.726,8.312,8.312,0,0,0,3.557-.689,7.021,7.021,0,0,0,2.512-1.973l.947,1.82A8.133,8.133,0,0,1,451,324.651,9.4,9.4,0,0,1,446.857,325.49Zm-.277-22.652a5.019,5.019,0,0,0-4.152,2.246,10.7,10.7,0,0,0-1.954,5.631l.038.109h11.8v-.663a8.594,8.594,0,0,0-1.546-5.223A4.922,4.922,0,0,0,446.58,302.838Z" transform="translate(-375.584 -292.254)" fill="#fff" stroke="#000" stroke-width="1"/>
      <path id="Path_36" data-name="Path 36" d="M448.781,299.054V305.2h4.433v2.175h-4.433v15.643a5.826,5.826,0,0,0,.719,3.336,2.237,2.237,0,0,0,1.906.988,9.636,9.636,0,0,0,1.052-.056c.341-.037.734-.1,1.183-.187l.333,1.973a5,5,0,0,1-1.359.446,8.564,8.564,0,0,1-1.6.153,3.882,3.882,0,0,1-3.306-1.595,8.6,8.6,0,0,1-1.18-5.058V307.373h-3.482V305.2h3.482v-6.144Z" transform="translate(-362.245 -296.433)" fill="#fff" stroke="#000" stroke-width="1"/>
      <path id="Path_37" data-name="Path 37" d="M460.527,325.026c-.15-.812-.255-1.516-.318-2.108a16.786,16.786,0,0,1-.094-1.8,9.607,9.607,0,0,1-2.977,3.126,7.357,7.357,0,0,1-4.19,1.243,5.745,5.745,0,0,1-4.568-1.864,7.3,7.3,0,0,1-1.629-4.991,6.566,6.566,0,0,1,2.411-5.324,9.888,9.888,0,0,1,6.5-2h4.448v-2.973a5.636,5.636,0,0,0-1.385-4.04,5.1,5.1,0,0,0-3.883-1.464,5.528,5.528,0,0,0-3.86,1.4,4.451,4.451,0,0,0-1.535,3.418l-2.048-.022-.037-.135a6.166,6.166,0,0,1,2.055-4.8,7.562,7.562,0,0,1,5.519-2.119,7.261,7.261,0,0,1,5.362,2.018,7.823,7.823,0,0,1,2.029,5.792v11.8a24.013,24.013,0,0,0,.12,2.464,17.734,17.734,0,0,0,.4,2.374Zm-7.316-1.887a7.017,7.017,0,0,0,4.242-1.34,7.607,7.607,0,0,0,2.662-3.429v-5.013H455.63a7.23,7.23,0,0,0-4.849,1.543,4.823,4.823,0,0,0-1.816,3.826,4.542,4.542,0,0,0,1.127,3.182A4.007,4.007,0,0,0,453.212,323.139Z" transform="translate(-352.483 -292.254)" fill="#fff" stroke="#000" stroke-width="1"/>
    </g>
  </g>
</svg>
