<svg xmlns="http://www.w3.org/2000/svg" width="470.509" height="176.03" viewBox="0 0 470.509 176.03">
  <g id="Group_36" data-name="Group 36" transform="translate(0)">
    <path id="Path_7" data-name="Path 7" d="M452.141,436.055V297.225h55.223v27.153h-29.5v26.435h23.574v30.8H477.861v27.219H508.3v27.228Z" transform="translate(-452.141 -297.225)" fill="#fff"/>
    <path id="Path_8" data-name="Path 8" d="M504.3,401.478l-3.49-9.227q-1.744-4.418-3.745-10.1t-3.625-11.07q-1.744,5.392-3.685,11.07t-3.685,10.1l-3.609,9.227H457.559l23.969-52.725-21.3-48.3h26.25l.816,2.311c1.057,3.081,2.34,6.736,3.806,10.965a109.76,109.76,0,0,1,3.413,11.735q1.472-5.573,3.685-11.826t3.821-10.874l.8-2.311h25.041L506.3,347.228l24.24,54.25Z" transform="translate(-392.294 -262.648)" fill="#fff"/>
    <path id="Path_9" data-name="Path 9" d="M527.291,352.662q0,27.117-6.464,40.023-6.457,12.89-18.049,12.883a14.932,14.932,0,0,1-9.047-2.764,45.663,45.663,0,0,1-6.751-6.011V426.8l-23.969,13.85V302.368h23.969l.181,7.129a43.16,43.16,0,0,1,7.28-6.6,15.744,15.744,0,0,1,9.273-2.582,16.486,16.486,0,0,1,9.3,2.885q4.3,2.9,7.461,9.243a61.494,61.494,0,0,1,4.984,16.251A135.646,135.646,0,0,1,527.291,352.662Zm-23.968,1.147q0-7.543-.484-12.5a35.946,35.946,0,0,0-1.419-7.748A7.54,7.54,0,0,0,499,329.674a5.71,5.71,0,0,0-3.383-1.072,8.311,8.311,0,0,0-4.728,1.36,20.7,20.7,0,0,0-3.911,3.489v38.981a20.337,20.337,0,0,0,3.911,3.5,8.552,8.552,0,0,0,4.864,1.36,5.727,5.727,0,0,0,3.307-.982,6.979,6.979,0,0,0,2.356-3.579,31.454,31.454,0,0,0,1.419-7.174A117.09,117.09,0,0,0,503.323,353.809Z" transform="translate(-319.529 -264.623)" fill="#fff"/>
    <path id="Path_10" data-name="Path 10" d="M512.818,340.534a26.782,26.782,0,0,0-5.029-6.057,9.194,9.194,0,0,0-6.223-2.416,8.108,8.108,0,0,0-6.963,3.565c-1.691,2.371-2.552,6.645-2.552,12.792v55.036H468.083V302.429h23.969v7.31a26.942,26.942,0,0,1,6.706-6.917,14.194,14.194,0,0,1,8.306-2.507,16.269,16.269,0,0,1,6.555,1.163,17.092,17.092,0,0,1,4.818,3.066Z" transform="translate(-249.815 -264.623)" fill="#fff"/>
    <path id="Path_11" data-name="Path 11" d="M535.214,356.12v3.761a29.581,29.581,0,0,1-.136,2.975H493.832q.68,8.473,3.821,12.309a9.993,9.993,0,0,0,8.1,3.851,23.9,23.9,0,0,0,8.835-1.631,42.2,42.2,0,0,0,9.379-5.483l9.243,22.126a53.675,53.675,0,0,1-13.457,8.563,38.035,38.035,0,0,1-15.194,2.976,26.047,26.047,0,0,1-14.061-3.836,31.467,31.467,0,0,1-10.316-10.783,55.183,55.183,0,0,1-6.3-16.644,98.378,98.378,0,0,1-2.145-21.265,96.973,96.973,0,0,1,2.417-22.9,54.082,54.082,0,0,1,6.691-16.463,29.991,29.991,0,0,1,10.18-10,25.562,25.562,0,0,1,12.853-3.368q14.476,0,22.911,13.865Q535.214,328.02,535.214,356.12Zm-21.3-14.816c-.619-5.135-1.677-8.986-3.141-11.554-1.466-2.552-4-3.836-7.567-3.836-5.453,0-8.564,5.12-9.379,15.39Z" transform="translate(-200.634 -264.623)" fill="#fff"/>
    <path id="Path_12" data-name="Path 12" d="M534.931,371.51q0,17.511-7.763,25.8t-21.3,8.262a52.121,52.121,0,0,1-15.133-2.205,69.208,69.208,0,0,1-14.2-6.056l5.634-26.174a68.791,68.791,0,0,0,12.988,6.449,33.666,33.666,0,0,0,11.237,2.4c2.326,0,3.972-.378,4.969-1.163a4.1,4.1,0,0,0,1.465-3.458,5.651,5.651,0,0,0-1.073-3.746c-.709-.846-2.22-1.707-4.546-2.6a114.323,114.323,0,0,1-13.728-6.072,31.157,31.157,0,0,1-8.971-6.917,24.235,24.235,0,0,1-4.954-9.333,49.043,49.043,0,0,1-1.541-13.291q0-15.586,7.1-24.331,7.092-8.768,21.553-8.76a52.476,52.476,0,0,1,7.37.484,56.107,56.107,0,0,1,6.555,1.344,42.226,42.226,0,0,1,6.434,2.311c2.145.967,4.365,2.024,6.691,3.172l-5.346,26.747a71.124,71.124,0,0,0-12.324-6.449,28.613,28.613,0,0,0-10.043-2.009c-2.326,0-3.882.348-4.7,1.057a4.252,4.252,0,0,0-1.193,3.368,8.9,8.9,0,0,0,.2,2.008,3.58,3.58,0,0,0,.937,1.646,9.018,9.018,0,0,0,2.145,1.54,39.037,39.037,0,0,0,3.685,1.723,112.556,112.556,0,0,1,12.657,5.784,32.173,32.173,0,0,1,8.7,6.721,23.5,23.5,0,0,1,4.954,9.047A45.287,45.287,0,0,1,534.931,371.51Z" transform="translate(-132.853 -264.623)" fill="#fff"/>
    <path id="Path_13" data-name="Path 13" d="M539.462,371.51q0,17.511-7.778,25.8-7.748,8.27-21.28,8.262a52.123,52.123,0,0,1-15.133-2.205,68.868,68.868,0,0,1-14.2-6.056l5.619-26.174a69.4,69.4,0,0,0,13,6.449,33.592,33.592,0,0,0,11.237,2.4c2.326,0,3.972-.378,4.969-1.163a4.138,4.138,0,0,0,1.466-3.458,5.654,5.654,0,0,0-1.072-3.746c-.71-.846-2.236-1.707-4.546-2.6a114.345,114.345,0,0,1-13.729-6.072,30.736,30.736,0,0,1-8.971-6.917,24.04,24.04,0,0,1-4.954-9.333,48.4,48.4,0,0,1-1.556-13.291q0-15.586,7.113-24.331,7.09-8.768,21.552-8.76a52.653,52.653,0,0,1,7.371.484,56.1,56.1,0,0,1,6.554,1.344,42.242,42.242,0,0,1,6.434,2.311c2.145.967,4.365,2.024,6.691,3.172l-5.347,26.747a71.116,71.116,0,0,0-12.324-6.449,28.608,28.608,0,0,0-10.043-2.009c-2.326,0-3.881.348-4.7,1.057a4.256,4.256,0,0,0-1.209,3.368,8.8,8.8,0,0,0,.212,2.008,3.453,3.453,0,0,0,.937,1.646,8.72,8.72,0,0,0,2.145,1.54,38.914,38.914,0,0,0,3.685,1.723,112.637,112.637,0,0,1,12.657,5.784,32.185,32.185,0,0,1,8.7,6.721,23.5,23.5,0,0,1,4.954,9.047A45.278,45.278,0,0,1,539.462,371.51Z" transform="translate(-68.953 -264.623)" fill="#fff"/>
  </g>
</svg>
